<svg xmlns="http://www.w3.org/2000/svg" viewBox="0 0 267.68 267.68"><defs><style>.cls-1{fill:none;}.cls-2{fill:#fdc794;}</style></defs><g id="Layer_2" data-name="Layer 2"><g id="Layer_1-2" data-name="Layer 1"><rect class="cls-1" width="267.68" height="267.68"/><path class="cls-2" d="M133.84,28.82c-38.67,0-70,29.2-70,67.86s70,142.18,70,142.18,70-103.51,70-142.18S172.51,28.82,133.84,28.82Zm4.29,34.62c.47-4.37,5.43-7.21,11.08-6.35s9.85,5.11,9.38,9.48-5.42,7.21-11.07,6.35S137.67,67.81,138.13,63.44Zm-19.42-5.88c5.56-.84,10.44,2,10.92,6.39s-3.65,8.59-9.2,9.43S110,71.37,109.51,67,113.15,58.41,118.71,57.56ZM92.59,87.05c-1.39-2.8.29-6.92,3.74-9.21s7.37-1.87,8.76.92-.29,6.92-3.75,9.21S94,89.84,92.59,87.05Zm78.33,25.57c0,13.5-16.41-.61-36.65-.61a62.27,62.27,0,0,0-16.79,2.67c-11.8,3.3-19.86,7.41-19.86-2.06,0-13.49,16.41-34.37,36.65-34.37,9.12,0,17.45,4.24,23.86,10.13l.15-.1c7.75,7.17,12.64,16.74,12.64,24.11ZM175.05,86c-1.42,2.76-5.23,3.28-8.5,1.15a9.06,9.06,0,0,1-2.44-2.33,6.39,6.39,0,0,1-.91-6.52c1.41-2.76,5.22-3.28,8.49-1.15a8.84,8.84,0,0,1,1.73,1.47l.14-.09a7.73,7.73,0,0,1,2,4.77A5.17,5.17,0,0,1,175.05,86Z"/></g></g></svg>