<svg xmlns="http://www.w3.org/2000/svg" viewBox="0 0 267.68 267.68"><defs><style>.cls-1{fill:#fdc794;}.cls-2,.cls-3{fill:#fffbf3;}.cls-3{opacity:0.21;}.cls-4{fill:none;}</style></defs><g id="Layer_2" data-name="Layer 2"><g id="Layer_1-2" data-name="Layer 1"><path class="cls-1" d="M203.86,96.69c0,38.67-70,142.17-70,142.17s-70-103.5-70-142.17,31.34-67.87,70-67.87S203.86,58,203.86,96.69Z"/><path class="cls-2" d="M170.92,112.63c0,13.49-16.41-.61-36.65-.61a62.67,62.67,0,0,0-16.79,2.66l40.8-26.16C166,95.68,170.92,105.26,170.92,112.63Z"/><path class="cls-2" d="M175.05,86c-1.42,2.76-5.23,3.28-8.5,1.15a9.18,9.18,0,0,1-2.44-2.32l9.45-6.06C175.48,80.89,176.16,83.79,175.05,86Z"/><ellipse class="cls-2" cx="98.84" cy="82.91" rx="7.57" ry="5.55" transform="matrix(0.74, -0.67, 0.67, 0.74, -30.07, 88)"/><ellipse class="cls-2" cx="119.57" cy="65.48" rx="10.19" ry="7.94" transform="translate(-11.29 27.27) rotate(-12.43)"/><path class="cls-2" d="M173.56,78.72l-9.45,6.06a6.43,6.43,0,0,1-.92-6.53c1.42-2.76,5.23-3.28,8.5-1.15A8.87,8.87,0,0,1,173.56,78.72Z"/><ellipse class="cls-2" cx="148.36" cy="65.01" rx="7.94" ry="10.36" transform="translate(52.94 195.9) rotate(-77.57)"/><path class="cls-2" d="M158.28,88.52l-40.8,26.16c-11.8,3.3-19.86,7.41-19.86-2.05,0-13.5,16.41-34.37,36.65-34.37C143.46,78.26,151.85,82.56,158.28,88.52Z"/><path class="cls-3" d="M170.92,112.4c0,13.49-16.41-.61-36.65-.61a62.27,62.27,0,0,0-16.79,2.67l40.8-26.17C166,95.45,170.92,105,170.92,112.4Z"/><path class="cls-3" d="M175.05,85.72c-1.42,2.76-5.23,3.28-8.5,1.15a9.18,9.18,0,0,1-2.44-2.32l9.45-6.06C175.48,80.66,176.16,83.56,175.05,85.72Z"/><rect class="cls-4" width="267.68" height="267.68"/></g></g></svg>