<svg xmlns="http://www.w3.org/2000/svg" xmlns:xlink="http://www.w3.org/1999/xlink" viewBox="0 0 632.53 644.14"><defs><style>.cls-1,.cls-6,.cls-7{fill:none;}.cls-2{fill:#fff;}.cls-3{fill:#f9ede4;}.cls-4{fill:#fdc794;}.cls-5{clip-path:url(#clip-path);}.cls-6,.cls-7{stroke:#fff;stroke-miterlimit:10;}.cls-6{stroke-width:13.41px;}.cls-7{stroke-width:12px;}.cls-8,.cls-9{fill:#fffbf3;}.cls-9{opacity:0.21;}</style><clipPath id="clip-path" transform="translate(0 11.6)"><path class="cls-1" d="M265.13,81.06C153.48,117.91,85.18,105.81,42.45,235.11s112,181,213.67,187.75,175.65,122.95,242.31,77.29,137.87-82.73,74-191C484.87,160.89,376.78,44.21,265.13,81.06Z"/></clipPath></defs><g id="Layer_2" data-name="Layer 2"><g id="Layer_1-2" data-name="Layer 1"><rect class="cls-2" y="11.6" width="632.53" height="632.53"/><circle class="cls-3" cx="257.13" cy="630.17" r="13.97"/><circle class="cls-4" cx="316.27" cy="630.17" r="13.97"/><circle class="cls-3" cx="375.41" cy="630.17" r="13.97"/><path class="cls-3" d="M265.13,81.06C153.48,117.91,85.18,105.81,42.45,235.11s112,181,213.67,187.75,175.65,122.95,242.31,77.29,137.87-82.73,74-191C484.87,160.89,376.78,44.21,265.13,81.06Z" transform="translate(0 11.6)"/><g class="cls-5"><rect class="cls-6" x="96.5" y="43.44" width="443.23" height="318.92" rx="12" transform="translate(-41.06 98.92) rotate(-14.69)"/><line class="cls-7" x1="223.96" y1="81.01" x2="319.78" y2="463.8"/><line class="cls-7" x1="335.94" y1="61.49" x2="453.6" y2="531.49"/><line class="cls-7" x1="562.74" y1="233.29" x2="31.6" y2="277.62"/><line class="cls-7" x1="556.94" y1="149.01" x2="25.8" y2="193.34"/></g><path class="cls-4" d="M320.59,168c0,37.88-68.59,139.28-68.59,139.28S183.41,205.86,183.41,168s30.71-66.49,68.59-66.49S320.59,130.1,320.59,168Z" transform="translate(0 11.6)"/><path class="cls-8" d="M288.33,183.59c0,13.22-16.08-.6-35.91-.6A61.06,61.06,0,0,0,236,185.61l40-25.64C283.53,167,288.33,176.37,288.33,183.59Z" transform="translate(0 11.6)"/><path class="cls-8" d="M292.37,157.46c-1.4,2.7-5.12,3.21-8.33,1.13a8.94,8.94,0,0,1-2.38-2.28l9.25-5.94C292.79,152.5,293.46,155.34,292.37,157.46Z" transform="translate(0 11.6)"/><ellipse class="cls-8" cx="217.71" cy="154.48" rx="7.42" ry="5.44" transform="translate(-47.31 198.12) rotate(-42.25)"/><ellipse class="cls-8" cx="238.02" cy="137.4" rx="9.98" ry="7.78" transform="translate(-24 66.05) rotate(-12.43)"/><path class="cls-8" d="M290.91,150.37l-9.25,5.94a6.25,6.25,0,0,1-.9-6.39c1.39-2.71,5.12-3.22,8.32-1.13A8.75,8.75,0,0,1,290.91,150.37Z" transform="translate(0 11.6)"/><ellipse class="cls-8" cx="266.22" cy="136.94" rx="7.78" ry="10.15" transform="translate(75.19 379.05) rotate(-77.57)"/><path class="cls-8" d="M275.94,160l-40,25.64c-11.56,3.23-19.46,7.25-19.46-2,0-13.22,16.08-33.67,35.91-33.67C261.42,149.92,269.64,154.13,275.94,160Z" transform="translate(0 11.6)"/><path class="cls-9" d="M288.33,183.37c0,13.22-16.08-.6-35.91-.6A61.06,61.06,0,0,0,236,185.38l40-25.63C283.53,166.77,288.33,176.14,288.33,183.37Z" transform="translate(0 11.6)"/><path class="cls-9" d="M292.37,157.23c-1.4,2.71-5.12,3.22-8.33,1.13a8.64,8.64,0,0,1-2.38-2.28l9.25-5.93C292.79,152.28,293.46,155.11,292.37,157.23Z" transform="translate(0 11.6)"/></g></g></svg>