<svg xmlns="http://www.w3.org/2000/svg" viewBox="0 0 632.53 632.53"><defs><style>.cls-1{fill:#fff;}.cls-2{fill:#f9ede4;}.cls-3{fill:#fdc794;}.cls-4{fill:#f4d8ce;}.cls-5{fill:#e0e0e0;}.cls-6{fill:#fffbf3;}.cls-7{fill:#ababab;}</style></defs><g id="Layer_2" data-name="Layer 2"><g id="Layer_1-2" data-name="Layer 1"><rect class="cls-1" width="632.53" height="632.53"/><circle class="cls-2" cx="257.13" cy="618.57" r="13.97"/><circle class="cls-2" cx="316.27" cy="618.57" r="13.97"/><circle class="cls-3" cx="375.41" cy="618.57" r="13.97"/><path class="cls-2" d="M431.77,156.3C529.9,221.05,599,227.23,606.43,363.21S451.05,508.64,351.11,488.57,149.43,561.33,97,499.83-14.42,383.93,75.54,296.16C198.81,175.91,333.64,91.54,431.77,156.3Z"/><path class="cls-4" d="M331,314.45c43.16-25,135.54,69.66,146.1,91.86S527.67,476,520.17,484,436,496.55,436,496.55,238.59,368,331,314.45Z"/><rect class="cls-5" x="238.94" y="101.03" width="166.08" height="332.94" rx="14.8"/><rect class="cls-6" x="251.46" y="118.16" width="141.04" height="300.43" rx="14.8"/><rect class="cls-3" x="260.85" y="174.62" width="56.98" height="72.75" rx="12"/><path class="cls-2" d="M272.85,174.62h33a12,12,0,0,1,12,12v41.75a0,0,0,0,1,0,0h-57a0,0,0,0,1,0,0V186.62A12,12,0,0,1,272.85,174.62Z"/><rect class="cls-3" x="325.86" y="174.62" width="56.98" height="72.75" rx="12"/><path class="cls-2" d="M337.86,174.62h33a12,12,0,0,1,12,12v41.75a0,0,0,0,1,0,0h-57a0,0,0,0,1,0,0V186.62A12,12,0,0,1,337.86,174.62Z"/><rect class="cls-3" x="260.98" y="254.79" width="56.98" height="72.75" rx="12"/><path class="cls-2" d="M273,254.79h33a12,12,0,0,1,12,12v41.75a0,0,0,0,1,0,0H261a0,0,0,0,1,0,0V266.79A12,12,0,0,1,273,254.79Z"/><rect class="cls-3" x="325.99" y="254.79" width="56.98" height="72.75" rx="12"/><path class="cls-2" d="M338,254.79h33a12,12,0,0,1,12,12v41.75a0,0,0,0,1,0,0H326a0,0,0,0,1,0,0V266.79A12,12,0,0,1,338,254.79Z"/><rect class="cls-3" x="260.98" y="334.97" width="56.98" height="72.75" rx="12"/><path class="cls-2" d="M273,335h33a12,12,0,0,1,12,12v41.75a0,0,0,0,1,0,0H261a0,0,0,0,1,0,0V347A12,12,0,0,1,273,335Z"/><rect class="cls-3" x="325.99" y="334.97" width="56.98" height="72.75" rx="12"/><path class="cls-2" d="M338,335h33a12,12,0,0,1,12,12v41.75a0,0,0,0,1,0,0H326a0,0,0,0,1,0,0V347A12,12,0,0,1,338,335Z"/><circle class="cls-7" cx="280.62" cy="147.65" r="15.54"/><rect class="cls-3" x="302.9" y="143.25" width="53.09" height="8.81" rx="4.4"/><circle class="cls-3" cx="394.84" cy="122.83" r="24.82"/><polygon class="cls-6" points="408.36 120.19 397.48 120.19 397.48 109.31 392.2 109.31 392.2 120.19 381.33 120.19 381.33 125.47 392.2 125.47 392.2 136.34 397.48 136.34 397.48 125.47 408.36 125.47 408.36 120.19"/></g></g></svg>