<svg xmlns="http://www.w3.org/2000/svg" viewBox="0 0 632.53 632.53"><defs><style>.cls-1{fill:#fff;}.cls-2{fill:#f9ede4;}.cls-3,.cls-7{fill:none;stroke:#5b2b15;stroke-linecap:round;stroke-miterlimit:10;}.cls-3{stroke-width:0.75px;}.cls-4{fill:#e0e0e0;}.cls-5{fill:#fdc794;}.cls-6{fill:#fffbf3;}.cls-7{stroke-width:0.37px;}.cls-8{fill:#f4d8ce;}</style></defs><g id="Layer_2" data-name="Layer 2"><g id="Layer_1-2" data-name="Layer 1"><rect class="cls-1" width="632.53" height="632.53"/><path class="cls-2" d="M502.19,454.85c64.28-98.45,125.21-131.6,77.95-259.31S379.74,123.91,296,182.07s-214,13.47-237.61,90.73S2.27,423.47,119.73,468.21C280.65,529.51,437.91,553.29,502.19,454.85Z"/><line class="cls-3" x1="262.09" y1="293.42" x2="544.91" y2="293.42"/><rect class="cls-4" x="159.93" y="135.57" width="134.23" height="269.09" rx="14.8"/><path class="cls-5" d="M356.88,95.81s-12.18-14.5-15-14.76S340,109.8,340,109.8s-.18,30,8.33,34.7c0,0-14,31.6-6,50.51s22,53.35,15.8,70.7,2.33,27.71,4.66,27.71,60.94,2,73.3-1,56.72-67.86-14.76-118.1c0,0-7.26-33.41-20.46-36.78,0,0,8.72-28.75-2.24-33.15,0,0,1.72-24.35-1.91-27.71s-13.21,18.64-13.21,18.64A34.81,34.81,0,0,0,356.88,95.81Z"/><path class="cls-5" d="M431.73,280.73s38.33-17.09,61.38,6-12.18,66.82-7,76.14,26.94,3.11,27.46,11.14-35.74,12.17-37.3-6.22,21-62.15,7.25-73.29c-15.77-12.8-47.39-2.07-47.39-2.07Z"/><rect class="cls-6" x="170.05" y="149.41" width="113.99" height="242.82" rx="14.8"/><line class="cls-7" x1="170.05" y1="312.79" x2="284.05" y2="312.79"/><path class="cls-5" d="M206.32,216.09s-6-7.09-7.35-7.22-.89,14.07-.89,14.07-.09,14.7,4.07,17c0,0-6.86,15.46-2.93,24.71S210,290.74,207,299.23s1.14,13.56,2.28,13.56,29.82.95,35.86-.51,27.76-33.2-7.22-57.79c0,0-3.55-16.35-10-18,0,0,4.27-14.07-1.1-16.22,0,0,.85-11.92-.93-13.56s-6.46,9.12-6.46,9.12A17,17,0,0,0,206.32,216.09Z"/><path class="cls-5" d="M240.06,305.94s18.76-8.37,30,2.91-6,32.7-3.43,37.26,13.18,1.52,13.44,5.45-17.49,5.95-18.25-3,10.26-30.42,3.55-35.87c-7.72-6.26-23.19-1-23.19-1Z"/><path class="cls-8" d="M287.45,320.26c-35.9-22.71-112.77,63.24-121.56,83.39s-39,67.27-39,67.27l62.73,22.45S364.35,368.91,287.45,320.26Z"/><circle class="cls-5" cx="257.13" cy="618.57" r="13.97"/><circle class="cls-2" cx="316.27" cy="618.57" r="13.97"/><circle class="cls-2" cx="375.41" cy="618.57" r="13.97"/></g></g></svg>