<svg xmlns="http://www.w3.org/2000/svg" viewBox="0 0 367.25 367.25"><defs><style>.cls-1,.cls-3{fill:#fdc794;}.cls-2{fill:#fffbf3;}.cls-3{opacity:0.21;}</style></defs><g id="Layer_2" data-name="Layer 2"><g id="Layer_1-2" data-name="Layer 1"><rect class="cls-1" width="367.25" height="367.25" rx="20.48"/><path class="cls-2" d="M308.74,235.09c0,45.53-55.37-2.06-123.66-2.06-20.42,0-39.69,4.25-56.66,9l137.67-88.29C292.22,177.92,308.74,210.21,308.74,235.09Z"/><path class="cls-2" d="M322.65,145.08C317.86,154.4,305,156.15,294,149a30.46,30.46,0,0,1-8.21-7.84l31.88-20.45C324.12,128,326.41,137.78,322.65,145.08Z"/><ellipse class="cls-2" cx="65.51" cy="134.82" rx="25.55" ry="18.73" transform="translate(-73.63 79.08) rotate(-42.25)"/><ellipse class="cls-2" cx="135.46" cy="76" rx="34.38" ry="26.78" transform="translate(-13.18 30.94) rotate(-12.43)"/><path class="cls-2" d="M317.65,120.67l-31.88,20.45c-5-7-6.47-15.48-3.1-22,4.79-9.32,17.63-11.07,28.67-3.88A30.55,30.55,0,0,1,317.65,120.67Z"/><ellipse class="cls-2" cx="232.62" cy="74.41" rx="26.78" ry="34.96" transform="translate(109.88 285.56) rotate(-77.57)"/><path class="cls-2" d="M266.09,153.74,128.42,242c-39.8,11.13-67,25-67-6.94,0-45.54,55.36-116,123.67-116C216.08,119.12,244.39,133.62,266.09,153.74Z"/><path class="cls-3" d="M308.74,234.31c0,45.54-55.37-2.05-123.66-2.05-20.42,0-39.69,4.25-56.66,9L266.09,153C292.22,177.15,308.74,209.44,308.74,234.31Z"/><path class="cls-3" d="M322.65,144.3c-4.79,9.32-17.63,11.07-28.67,3.89a30.5,30.5,0,0,1-8.21-7.85l31.88-20.45C324.12,127.23,326.41,137,322.65,144.3Z"/><path class="cls-2" d="M110,300.24q0,7.42-4.64,11.35t-13.18,3.93H88v16.34H78.29V285.91H93q8.36,0,12.71,3.6T110,300.24Zm-22,7.29h3.21c3,0,5.24-.59,6.72-1.77a6.21,6.21,0,0,0,2.23-5.17,6.37,6.37,0,0,0-1.87-5.06c-1.24-1.09-3.2-1.63-5.86-1.63H88Z"/><path class="cls-2" d="M157.71,285.91v29.73a17.14,17.14,0,0,1-2.28,8.93,14.89,14.89,0,0,1-6.58,5.87,23.48,23.48,0,0,1-10.19,2.05q-8.85,0-13.76-4.54T120,315.52V285.91h9.71V314q0,5.31,2.13,7.79t7.07,2.49c3.19,0,5.5-.84,6.93-2.5S148,317.54,148,314V285.91Z"/><path class="cls-2" d="M180.31,314.23v17.63h-9.74V285.91H184c6.25,0,10.86,1.14,13.86,3.41s4.49,5.73,4.49,10.36a12.18,12.18,0,0,1-2.23,7.21,14.66,14.66,0,0,1-6.31,4.95q10.37,15.5,13.51,20H196.46l-11-17.63Zm0-7.92h3.14q4.62,0,6.82-1.54a5.52,5.52,0,0,0,2.2-4.84,5,5,0,0,0-2.25-4.65q-2.25-1.38-7-1.38h-2.95Z"/><path class="cls-2" d="M224.4,314.23v17.63h-9.74V285.91h13.39q9.36,0,13.86,3.41t4.49,10.36a12.18,12.18,0,0,1-2.23,7.21,14.69,14.69,0,0,1-6.32,4.95q10.38,15.5,13.51,20H240.55l-11-17.63Zm0-7.92h3.14c3.08,0,5.36-.51,6.82-1.54a5.49,5.49,0,0,0,2.2-4.84,5,5,0,0,0-2.24-4.65q-2.25-1.38-7-1.38h-3Z"/><path class="cls-2" d="M273.05,304.83l9.59-18.92h10.49L277.89,314v17.88h-9.68V314.29L253,285.91h10.56Z"/></g></g></svg>